<svg xmlns="http://www.w3.org/2000/svg" width="18" height="18" viewBox="0 0 18 18" fill="none">
  <path d="M15.6666 11.7082C15.5488 11.7083 15.4333 11.6751 15.3336 11.6124C15.2338 11.5497 15.1538 11.4601 15.1027 11.3539C15.0517 11.2478 15.0317 11.1293 15.0451 11.0122C15.0584 10.8952 15.1046 10.7843 15.1783 10.6923L16.5333 8.99983L15.1791 7.30733C15.0755 7.17781 15.0275 7.01243 15.0458 6.84755C15.0641 6.68268 15.1471 6.53182 15.2766 6.42816C15.4061 6.3245 15.5715 6.27654 15.7364 6.29483C15.9013 6.31311 16.0521 6.39615 16.1558 6.52566L17.8225 8.60899C17.911 8.72001 17.9593 8.85781 17.9593 8.99983C17.9593 9.14184 17.911 9.27965 17.8225 9.39066L16.1558 11.474C16.0972 11.5472 16.0228 11.6062 15.9383 11.6467C15.8538 11.6873 15.7604 11.7083 15.6666 11.7082Z" fill="#FFFFFF"/>
  <path d="M16.5 9.62435H14C13.8342 9.62435 13.6753 9.5585 13.5581 9.44129C13.4408 9.32408 13.375 9.16511 13.375 8.99935C13.375 8.83359 13.4408 8.67462 13.5581 8.55741C13.6753 8.4402 13.8342 8.37435 14 8.37435H16.5C16.6658 8.37435 16.8247 8.4402 16.9419 8.55741C17.0592 8.67462 17.125 8.83359 17.125 8.99935C17.125 9.16511 17.0592 9.32408 16.9419 9.44129C16.8247 9.5585 16.6658 9.62435 16.5 9.62435ZM10.25 15.4577H9C8.83424 15.4577 8.67527 15.3918 8.55806 15.2746C8.44085 15.1574 8.375 14.9984 8.375 14.8327V3.16602C8.375 3.00026 8.44085 2.84128 8.55806 2.72407C8.67527 2.60686 8.83424 2.54102 9 2.54102H10.25C10.7471 2.54168 11.2236 2.73943 11.5751 3.09092C11.9266 3.44241 12.1243 3.91894 12.125 4.41602V13.5827C12.1243 14.0798 11.9266 14.5563 11.5751 14.9078C11.2236 15.2593 10.7471 15.457 10.25 15.4577ZM9.625 14.2077H10.25C10.4157 14.2075 10.5745 14.1415 10.6917 14.0244C10.8089 13.9072 10.8748 13.7484 10.875 13.5827V4.41602C10.8748 4.25032 10.8089 4.09148 10.6917 3.97432C10.5745 3.85715 10.4157 3.79124 10.25 3.79102H9.625V14.2077Z" fill="#FFFFFF"/>
  <path d="M7.34069 17.3868C7.11514 17.3868 6.89081 17.3536 6.67486 17.2885L1.67486 15.7885C1.20165 15.6488 0.786565 15.3593 0.492021 14.9635C0.197476 14.5676 0.0393884 14.0869 0.0415253 13.5935V4.40683C0.0393884 3.91344 0.197476 3.43269 0.492021 3.03686C0.786565 2.64103 1.20165 2.35151 1.67486 2.21183L6.67486 0.711831C7.01703 0.609208 7.37846 0.588 7.73029 0.649901C8.08212 0.711802 8.4146 0.855096 8.7012 1.06835C8.9878 1.2816 9.22058 1.55889 9.38095 1.8781C9.54132 2.19732 9.62485 2.5496 9.62486 2.90683V15.0935C9.62464 15.7001 9.38421 16.2819 8.95616 16.7117C8.5281 17.1414 7.94726 17.3842 7.34069 17.3868ZM7.33653 1.86433C7.23431 1.86454 7.13268 1.8797 7.03486 1.90933L2.03486 3.40933C1.81965 3.47268 1.63082 3.60418 1.49677 3.78407C1.36272 3.96395 1.2907 4.18249 1.29153 4.40683V13.5935C1.2907 13.8178 1.36272 14.0364 1.49677 14.2163C1.63082 14.3961 1.81965 14.5276 2.03486 14.591L7.03486 16.091C7.19032 16.1375 7.35448 16.147 7.51427 16.1188C7.67405 16.0906 7.82504 16.0254 7.9552 15.9285C8.08535 15.8317 8.19107 15.7057 8.26393 15.5607C8.33679 15.4157 8.37478 15.2558 8.37486 15.0935V2.90683C8.37464 2.63113 8.26531 2.36672 8.07075 2.17138C7.87619 1.97604 7.61222 1.86565 7.33653 1.86433Z" fill="#FFFFFF"/>
  <path d="M6.5 10.875C6.33424 10.875 6.17527 10.8092 6.05806 10.6919C5.94085 10.5747 5.875 10.4158 5.875 10.25V7.75C5.875 7.58424 5.94085 7.42527 6.05806 7.30806C6.17527 7.19085 6.33424 7.125 6.5 7.125C6.66576 7.125 6.82473 7.19085 6.94194 7.30806C7.05915 7.42527 7.125 7.58424 7.125 7.75V10.25C7.125 10.4158 7.05915 10.5747 6.94194 10.6919C6.82473 10.8092 6.66576 10.875 6.5 10.875Z" fill="#FFFFFF"/>
</svg>