<svg xmlns="http://www.w3.org/2000/svg" width="20" height="20" viewBox="0 0 20 20" fill="none">
  <path d="M10 0C4.48578 0 0 4.48578 0 10C0 15.5142 4.48578 20 10 20C15.5142 20 20 15.5142 20 10C20 4.48578 15.5142 0 10 0Z" fill="#F0554B"/>
  <path d="M13.6827 12.5033C14.0085 12.8292 14.0085 13.3558 13.6827 13.6817C13.6054 13.7592 13.5135 13.8207 13.4124 13.8626C13.3113 13.9045 13.2029 13.926 13.0934 13.9259C12.8801 13.9259 12.6668 13.8442 12.5043 13.6817L10.0002 11.1775L7.49606 13.6818C7.41876 13.7592 7.32693 13.8207 7.22582 13.8626C7.12471 13.9045 7.01632 13.926 6.90688 13.9259C6.79742 13.926 6.68901 13.9045 6.58789 13.8626C6.48677 13.8207 6.39492 13.7593 6.31762 13.6818C5.99184 13.3558 5.99184 12.8292 6.31762 12.5033L8.82187 9.99918L6.31758 7.49508C5.9918 7.16914 5.9918 6.64254 6.31758 6.31664C6.64352 5.99086 7.17012 5.99086 7.49606 6.31664L10.0002 8.8209L12.5043 6.3166C12.8302 5.99082 13.3568 5.99082 13.6827 6.3166C14.0085 6.64254 14.0085 7.16914 13.6827 7.49508L11.1784 9.99918L13.6827 12.5033Z" fill="#FAFAFA"/>
</svg>